<?xml version="1.0" standalone="no"?>
<!DOCTYPE svg PUBLIC "-//W3C//DTD SVG 20010904//EN"
 "http://www.w3.org/TR/2001/REC-SVG-20010904/DTD/svg10.dtd">
<svg version="1.0" xmlns="http://www.w3.org/2000/svg"
 width="100.000000pt" height="100.000000pt" viewBox="0 0 100.000000 100.000000"
 preserveAspectRatio="xMidYMid meet">

<g transform="translate(0.000000,100.000000) scale(0.100000,-0.100000)"
fill="#000000" stroke="none">
<path d="M428 949 c-239 -34 -417 -274 -379 -515 23 -148 123 -283 258 -347
65 -31 74 -32 189 -32 119 0 121 0 197 38 100 49 169 119 216 217 35 73 36 78
36 190 0 109 -2 119 -32 183 -42 88 -91 147 -160 193 -94 62 -212 89 -325 73z
m226 -109 c72 -27 47 -148 -25 -125 -19 6 -19 8 -5 31 33 50 7 92 -32 51 -11
-12 -25 -42 -32 -67 -6 -25 -13 -53 -16 -62 -4 -14 1 -18 25 -18 21 0 31 -5
31 -15 0 -10 -10 -15 -34 -15 -24 0 -36 -5 -40 -17 -3 -10 -26 -94 -51 -188
-25 -93 -48 -178 -51 -188 -3 -9 -17 -31 -31 -47 -28 -34 -80 -41 -107 -14
-24 23 -19 34 14 34 22 0 33 6 40 23 9 19 110 391 110 403 0 2 -9 4 -20 4 -11
0 -20 7 -20 15 0 9 9 15 25 15 20 0 26 7 36 43 31 116 101 169 183 137z"/>
</g>
</svg>
