<?xml version="1.0" standalone="no"?>
<!DOCTYPE svg PUBLIC "-//W3C//DTD SVG 20010904//EN"
 "http://www.w3.org/TR/2001/REC-SVG-20010904/DTD/svg10.dtd">
<svg version="1.0" xmlns="http://www.w3.org/2000/svg"
 width="100.000000pt" height="100.000000pt" viewBox="0 0 100.000000 100.000000"
 preserveAspectRatio="xMidYMid meet">

<g transform="translate(0.000000,100.000000) scale(0.100000,-0.100000)"
fill="#000000" stroke="none">
<path d="M0 500 l0 -500 500 0 500 0 0 500 0 500 -500 0 -500 0 0 -500z m388
147 l3 -107 104 0 105 0 0 90 0 89 46 20 c25 12 50 18 55 15 5 -3 9 -120 9
-260 l0 -254 -49 0 -48 0 -6 68 c-4 37 -7 84 -7 105 l0 38 -102 -3 -103 -3 -3
-102 -3 -103 -49 0 -50 0 0 240 0 240 38 19 c20 11 42 19 47 17 6 -1 11 -49
13 -109z"/>
</g>
</svg>
