<?xml version="1.0" standalone="no"?>
<!DOCTYPE svg PUBLIC "-//W3C//DTD SVG 20010904//EN"
 "http://www.w3.org/TR/2001/REC-SVG-20010904/DTD/svg10.dtd">
<svg version="1.0" xmlns="http://www.w3.org/2000/svg"
 width="100.000000pt" height="100.000000pt" viewBox="0 0 100.000000 100.000000"
 preserveAspectRatio="xMidYMid meet">

<g transform="translate(0.000000,100.000000) scale(0.100000,-0.100000)"
fill="#000000" stroke="none">
<path d="M174 836 l-34 -34 0 -301 0 -301 29 -32 29 -33 301 -3 c260 -2 305
-1 331 13 57 30 61 54 58 370 -3 272 -4 285 -24 312 -12 15 -29 27 -38 27 -9
-1 -13 2 -10 7 3 5 -126 9 -301 9 l-307 0 -34 -34z m246 -54 c41 -20 70 -71
70 -124 l0 -38 -60 0 c-52 0 -60 2 -60 19 0 46 -31 70 -44 35 -8 -22 4 -41 74
-109 78 -76 92 -104 93 -181 1 -125 -52 -182 -161 -171 -91 10 -120 50 -125
172 l-2 50 62 3 62 3 3 -58 c2 -44 7 -58 18 -58 10 0 16 13 18 43 3 40 0 46
-70 121 -40 43 -77 85 -83 92 -14 20 -8 124 9 158 30 56 127 78 196 43z m217
-86 c6 -55 14 -134 19 -175 l7 -76 13 125 c7 69 14 148 16 175 l3 50 49 3 c27
2 54 1 60 -1 9 -4 3 -77 -23 -293 l-36 -287 -80 2 c-44 1 -81 4 -83 6 -4 4
-72 529 -72 558 0 16 8 18 58 15 l57 -3 12 -99z"/>
</g>
</svg>
