<?xml version="1.0" standalone="no"?>
<!DOCTYPE svg PUBLIC "-//W3C//DTD SVG 20010904//EN"
 "http://www.w3.org/TR/2001/REC-SVG-20010904/DTD/svg10.dtd">
<svg version="1.0" xmlns="http://www.w3.org/2000/svg"
 width="200.000000pt" height="200.000000pt" viewBox="0 0 200.000000 200.000000"
 preserveAspectRatio="xMidYMid meet">

<g transform="translate(0.000000,200.000000) scale(0.100000,-0.100000)"
fill="#000000" stroke="none">
<path d="M310 1540 c0 -13 7 -20 20 -20 17 0 20 -7 20 -50 0 -49 1 -50 30 -50
29 0 30 1 30 50 0 43 3 50 20 50 13 0 20 7 20 20 0 18 -7 20 -70 20 -63 0 -70
-2 -70 -20z"/>
<path d="M479 1533 c-18 -45 -39 -105 -39 -110 0 -2 12 -3 27 -1 21 2 29 10
37 36 5 17 12 32 16 32 4 0 11 -15 16 -32 8 -26 16 -34 37 -36 15 -2 27 -1 27
2 0 3 -12 35 -26 71 -24 59 -29 65 -55 65 -23 0 -32 -6 -40 -27z"/>
<path d="M590 1540 c0 -13 7 -20 20 -20 17 0 20 -7 20 -50 0 -49 1 -50 30 -50
29 0 30 1 30 50 0 43 3 50 20 50 13 0 20 7 20 20 0 18 -7 20 -70 20 -63 0 -70
-2 -70 -20z"/>
<path d="M739 1490 l-27 -70 28 0 c24 0 30 6 43 43 l14 42 13 -42 c11 -37 17
-43 41 -43 l28 0 -24 65 c-14 36 -25 68 -25 70 0 3 -15 5 -32 5 -32 0 -34 -3
-59 -70z"/>
<path d="M339 1331 c-28 -22 -32 -83 -7 -107 19 -19 79 -24 85 -6 3 8 -5 12
-24 12 -16 0 -34 5 -41 12 -31 31 6 96 48 85 13 -3 20 0 20 9 0 21 -53 18 -81
-5z"/>
<path d="M451 1324 c-28 -36 -26 -70 5 -100 19 -20 31 -24 52 -19 36 8 52 31
52 76 0 66 -70 93 -109 43z m73 -16 c20 -29 20 -41 -2 -68 -26 -32 -62 -13
-62 33 0 56 36 75 64 35z"/>
<path d="M589 1338 c-6 -76 -2 -128 9 -128 8 0 12 16 12 48 l1 47 24 -40 c51
-86 65 -82 65 16 0 52 -3 70 -12 66 -8 -2 -13 -22 -13 -50 0 -26 0 -47 -1 -47
-1 0 -15 23 -32 50 -30 48 -51 63 -53 38z"/>
<path d="M736 1334 c-9 -8 -16 -18 -16 -20 0 -15 23 -44 34 -44 8 0 19 -6 25
-14 15 -18 -8 -37 -37 -29 -13 3 -22 1 -22 -6 0 -16 45 -24 69 -11 32 17 27
56 -10 75 -34 18 -34 40 0 39 11 0 21 5 21 13 0 18 -45 16 -64 -3z"/>
<path d="M836 1342 c-3 -5 -3 -33 -1 -63 5 -55 21 -79 55 -79 42 0 56 31 51
123 -2 51 -21 27 -21 -27 0 -61 -19 -88 -45 -66 -10 8 -15 31 -15 66 0 49 -10
68 -24 46z"/>
<path d="M977 1343 c-4 -3 -7 -35 -7 -70 l0 -63 45 0 c25 0 45 5 45 10 0 6
-13 10 -30 10 l-30 0 0 60 c0 55 -6 70 -23 53z"/>
<path d="M1046 1341 c-3 -5 3 -11 14 -14 17 -4 20 -14 20 -61 0 -43 3 -56 15
-56 12 0 15 13 15 56 0 47 3 57 20 61 11 3 20 9 20 14 0 12 -97 12 -104 0z"/>
<path d="M1185 1338 c-36 -99 -43 -128 -30 -128 7 0 17 9 20 20 9 29 44 25 56
-7 7 -19 13 -23 20 -16 15 15 -27 143 -47 143 -8 0 -17 -6 -19 -12z m23 -67
c-15 -6 -20 7 -12 31 l8 23 6 -25 c3 -14 2 -27 -2 -29z"/>
<path d="M1287 1343 c-4 -3 -7 -35 -7 -70 0 -49 3 -63 15 -63 11 0 15 12 15
48 l1 47 27 -47 c16 -29 34 -48 45 -48 16 0 18 8 15 67 -2 42 -8 68 -15 71 -9
2 -13 -11 -13 -45 l0 -48 -30 48 c-29 46 -40 54 -53 40z"/>
<path d="M1446 1329 c-22 -17 -26 -28 -24 -57 4 -45 44 -78 84 -68 32 8 21 23
-21 28 -27 3 -30 7 -33 40 -2 29 1 39 18 48 11 6 26 10 33 8 7 -2 14 2 15 7 5
20 -45 16 -72 -6z"/>
<path d="M1540 1343 c0 -5 9 -23 20 -41 11 -18 20 -46 20 -62 0 -20 5 -30 15
-30 10 0 15 10 15 33 0 17 9 46 20 62 24 35 25 45 6 45 -7 0 -19 -14 -26 -30
l-13 -31 -18 31 c-17 28 -39 40 -39 23z"/>
<path d="M338 1129 c-29 -17 -22 -56 13 -74 35 -19 34 -40 -4 -40 -37 -1 -44
-13 -13 -21 33 -8 52 -1 66 25 11 22 -2 40 -46 68 -16 10 -17 13 -4 22 8 5 18
7 22 5 4 -3 13 -2 19 2 8 4 7 9 -2 15 -18 11 -30 11 -51 -2z"/>
<path d="M651 1124 c1 -39 35 -129 50 -132 10 -2 22 16 37 60 25 72 27 81 10
76 -6 -2 -19 -26 -29 -54 l-17 -49 -12 47 c-13 51 -41 86 -39 52z"/>
<path d="M873 1130 c-72 -30 -47 -146 30 -138 18 2 31 8 29 13 -2 6 -10 9 -18
7 -30 -6 -54 18 -54 54 0 35 11 46 51 48 11 1 20 6 22 11 3 13 -33 16 -60 5z"/>
<path d="M1082 1124 c-31 -22 -27 -41 13 -66 41 -24 41 -43 -1 -43 -32 -1 -36
-18 -5 -23 60 -10 84 56 31 83 -31 16 -40 34 -17 36 6 1 17 2 22 4 6 1 15 3
20 4 12 2 -15 21 -30 21 -6 0 -21 -7 -33 -16z"/>
<path d="M430 1060 l0 -70 40 0 c45 0 55 17 13 22 -39 4 -39 42 0 46 33 4 26
22 -9 22 -15 0 -24 6 -24 15 0 10 10 15 30 15 17 0 30 5 30 10 0 6 -18 10 -40
10 l-40 0 0 -70z"/>
<path d="M540 1060 c0 -40 4 -70 10 -70 6 0 10 14 10 31 0 23 4 30 17 27 9 -2
20 -14 23 -27 3 -14 11 -26 18 -29 15 -5 16 22 2 48 -7 14 -7 25 2 39 17 28
-5 51 -48 51 l-34 0 0 -70z m58 31 c-5 -24 -38 -27 -38 -3 0 10 3 21 6 25 11
11 35 -5 32 -22z"/>
<path d="M780 1060 c0 -56 3 -70 15 -70 12 0 15 14 15 70 0 56 -3 70 -15 70
-12 0 -15 -14 -15 -70z"/>
<path d="M960 1060 l0 -70 40 0 c22 0 40 5 40 10 0 6 -11 10 -25 10 -20 0 -25
5 -25 25 0 20 5 25 25 25 14 0 25 5 25 10 0 6 -11 10 -25 10 -16 0 -25 6 -25
15 0 9 9 15 25 15 14 0 25 5 25 10 0 6 -18 10 -40 10 l-40 0 0 -70z"/>
<path d="M332 858 c-9 -9 -12 -72 -12 -220 0 -220 6 -254 48 -291 42 -38 147
-31 187 12 16 19 18 18 72 -10 86 -46 186 -36 252 24 25 24 91 151 91 178 0
29 12 29 45 1 18 -15 49 -40 69 -55 45 -35 50 -78 11 -103 -23 -15 -32 -15
-81 -4 -48 12 -57 12 -65 -1 -13 -21 -6 -32 32 -51 104 -54 234 23 215 127 -6
33 -26 53 -125 134 -33 26 -41 39 -39 60 3 26 4 26 75 24 52 -1 73 2 76 12 16
39 -73 74 -142 55 -60 -16 -94 -63 -126 -175 -24 -82 -48 -128 -85 -159 -26
-21 -42 -26 -89 -26 -91 0 -141 52 -141 145 0 102 56 160 145 151 28 -3 64 -8
81 -12 24 -4 33 -2 38 12 10 26 -20 52 -76 64 -170 36 -307 -110 -259 -277 13
-45 -17 -83 -63 -83 -58 0 -66 19 -66 168 l0 132 54 0 c35 0 58 5 66 15 22 26
-5 45 -66 45 l-54 0 0 48 c0 50 -12 72 -40 72 -9 0 -21 -5 -28 -12z"/>
</g>
</svg>
