<svg width="35" height="35" viewBox="0 0 35 35" fill="none" xmlns="http://www.w3.org/2000/svg">
<path d="M24.6198 26.1474L19.9375 29.9495C19.1285 30.6306 18.0087 30.915 16.7726 30.915C15.5365 30.915 14.4167 30.6306 13.6059 29.9495L6.08507 23.5864C5.27431 22.9054 4.86632 21.9093 4.86632 20.8694C4.86632 19.8296 5.27431 18.8903 6.08507 18.2093L13.5833 11.8214C14.3941 11.1403 15.5365 10.8807 16.7726 10.8807C18.0087 10.8807 19.1285 11.1651 19.9375 11.8462L24.6198 15.6468C25.5122 16.3979 26.9896 16.3717 27.9184 15.5914C28.8472 14.8097 28.8785 13.5686 27.9861 12.819L23.4566 8.97457C22.2871 8.00335 20.8163 7.32771 19.2118 7.02467L23.4948 3.37426C24.3906 2.62463 24.3594 1.38206 23.4306 0.601808C22.5017 -0.178444 21.0226 -0.203237 20.1285 0.546389L2.59375 15.2778C0.890625 16.71 0 18.6862 0 20.8709C0 23.0556 0.890625 25.093 2.59375 26.5222L10.1406 32.8824C11.8438 34.3102 14.1979 35 16.7969 35C19.3958 35 21.75 34.2533 23.4549 32.8211L27.9844 28.9753C28.8767 28.2257 28.8455 26.9845 27.9167 26.2043C26.9878 25.424 25.5104 25.3978 24.6198 26.1474ZM32.7951 18.972H15.1823C13.9635 18.972 12.9774 19.8529 12.9774 20.935C12.9774 22.0172 13.9635 22.8981 15.1823 22.8981H32.7951C34.0122 22.8981 35 22.0172 35 20.935C35 19.8529 34.0122 18.972 32.7951 18.972Z" fill="#EDAE49"/>
</svg>
