<svg width="54" height="49" viewBox="0 0 54 49" fill="none" xmlns="http://www.w3.org/2000/svg">
<path d="M51.395 26.475C50.9624 30.7305 49.2056 34.786 46.3302 38.167C43.4547 41.5479 39.5796 44.1145 35.1582 45.5664C30.7368 47.0182 25.9519 47.2953 21.3636 46.3652C16.7753 45.4351 12.5732 43.3364 9.24911 40.3144C5.925 37.2925 3.61633 33.4725 2.59324 29.3012C1.57015 25.13 1.87496 20.7802 3.47201 16.7607C5.06905 12.7413 7.89228 9.21842 11.6113 6.60438C15.3304 3.99035 19.7914 2.39326 24.4725 2C21.7319 5.37067 20.4131 9.52362 20.756 13.7035C21.0988 17.8834 23.0806 21.8126 26.3408 24.7765C29.6011 27.7403 33.9232 29.542 38.5211 29.8537C43.119 30.1654 47.6873 28.9665 51.395 26.475Z" stroke="#EDAE49" stroke-width="4" stroke-linecap="round" stroke-linejoin="round"/>
</svg>
