<svg width="60" height="54" viewBox="0 0 60 54" fill="none" xmlns="http://www.w3.org/2000/svg">
<path d="M29.9998 34.2501C32.2221 34.2501 34.1109 33.5452 35.6665 32.1355C37.2221 30.7258 37.9998 29.014 37.9998 27.0001C37.9998 24.9862 37.2221 23.2744 35.6665 21.8647C34.1109 20.4549 32.2221 19.7501 29.9998 19.7501C27.7776 19.7501 25.8887 20.4549 24.3332 21.8647C22.7776 23.2744 21.9998 24.9862 21.9998 27.0001C21.9998 29.014 22.7776 30.7258 24.3332 32.1355C25.8887 33.5452 27.7776 34.2501 29.9998 34.2501ZM29.9998 39.0834C26.3109 39.0834 23.1665 37.9053 20.5665 35.549C17.9665 33.1928 16.6665 30.3431 16.6665 27.0001C16.6665 23.657 17.9665 20.8074 20.5665 18.4511C23.1665 16.0949 26.3109 14.9167 29.9998 14.9167C33.6887 14.9167 36.8332 16.0949 39.4332 18.4511C42.0332 20.8074 43.3332 23.657 43.3332 27.0001C43.3332 30.3431 42.0332 33.1928 39.4332 35.549C36.8332 37.9053 33.6887 39.0834 29.9998 39.0834ZM11.3332 29.4167H0.666504V24.5834H11.3332V29.4167ZM59.3332 29.4167H48.6665V24.5834H59.3332V29.4167ZM27.3332 10.0834V0.416748H32.6665V10.0834H27.3332ZM27.3332 53.5834V43.9167H32.6665V53.5834H27.3332ZM15.0665 16.7292L8.33317 10.8688L12.1332 7.30425L18.5332 13.3459L15.0665 16.7292ZM47.8665 46.6959L41.3998 40.5938L44.9332 37.2709L51.6665 43.1313L47.8665 46.6959ZM41.3332 13.4667L47.7998 7.36466L51.7332 10.8084L45.0665 16.6084L41.3332 13.4667ZM8.2665 43.1917L14.9998 37.3313L18.6665 40.5334L12.1998 46.6355L8.2665 43.1917Z" fill="#FFCC00"/>
</svg>
