<svg width="35" height="35" viewBox="0 0 35 35" fill="none" xmlns="http://www.w3.org/2000/svg">
<g clip-path="url(#clip0_24_373)">
<path d="M13.1248 27.7083C5.83317 29.8958 5.83317 24.0624 2.9165 23.3333M23.3332 32.0833V26.4395C23.3879 25.7441 23.2939 25.0451 23.0576 24.3888C22.8212 23.7325 22.4479 23.1341 21.9623 22.6333C26.5415 22.1228 31.354 20.3874 31.354 12.4249C31.3536 10.3888 30.5704 8.43084 29.1665 6.95618C29.8313 5.17483 29.7843 3.20586 29.0353 1.45826C29.0353 1.45826 27.3144 0.947846 23.3332 3.6166C19.9907 2.71071 16.4673 2.71071 13.1248 3.6166C9.14359 0.947846 7.42275 1.45826 7.42275 1.45826C6.67372 3.20586 6.62671 5.17483 7.2915 6.95618C5.87711 8.44178 5.0931 10.4175 5.104 12.4687C5.104 20.3728 9.9165 22.1083 14.4957 22.677C14.0159 23.1728 13.6458 23.7641 13.4097 24.4123C13.1735 25.0606 13.0764 25.7513 13.1248 26.4395V32.0833" stroke="#EDAE49" stroke-width="4" stroke-linecap="round" stroke-linejoin="round"/>
</g>
<defs>
<clipPath id="clip0_24_373">
<rect width="35" height="35" fill="white"/>
</clipPath>
</defs>
</svg>
