<svg width="35" height="33" viewBox="0 0 35 33" fill="none" xmlns="http://www.w3.org/2000/svg">
<path d="M23.3332 11.6667C25.6538 11.6667 27.8794 12.5886 29.5204 14.2296C31.1613 15.8705 32.0832 18.0961 32.0832 20.4167V30.6251H26.2498V20.4167C26.2498 19.6432 25.9425 18.9013 25.3956 18.3544C24.8486 17.8074 24.1067 17.5001 23.3332 17.5001C22.5596 17.5001 21.8178 17.8074 21.2708 18.3544C20.7238 18.9013 20.4165 19.6432 20.4165 20.4167V30.6251H14.5832V20.4167C14.5832 18.0961 15.505 15.8705 17.146 14.2296C18.7869 12.5886 21.0125 11.6667 23.3332 11.6667Z" stroke="#EDAE49" stroke-width="4" stroke-linecap="round" stroke-linejoin="round"/>
<path d="M8.74984 13.1251H2.9165V30.6251H8.74984V13.1251Z" stroke="#EDAE49" stroke-width="4" stroke-linecap="round" stroke-linejoin="round"/>
<path d="M5.83317 8.75008C7.444 8.75008 8.74984 7.44425 8.74984 5.83341C8.74984 4.22258 7.444 2.91675 5.83317 2.91675C4.22234 2.91675 2.9165 4.22258 2.9165 5.83341C2.9165 7.44425 4.22234 8.75008 5.83317 8.75008Z" stroke="#EDAE49" stroke-width="4" stroke-linecap="round" stroke-linejoin="round"/>
</svg>
