<svg width="58" height="55" viewBox="0 0 58 55" fill="none" xmlns="http://www.w3.org/2000/svg">
<path d="M15.875 8.34951L29 14.7412L42.125 8.34951M15.875 46.6503V33.8916L2.75 27.4999M55.25 27.4999L42.125 33.8916V46.6503M3.5375 15.1099L29 27.5245L54.4625 15.1099M29 52.2799V27.4999M55.25 37.3333V17.6666C55.249 16.8044 54.9789 15.9576 54.467 15.2111C53.9551 14.4646 53.2192 13.8448 52.3333 13.4137L31.9167 3.58034C31.0299 3.14881 30.024 2.92163 29 2.92163C27.976 2.92163 26.9701 3.14881 26.0833 3.58034L5.66667 13.4137C4.78077 13.8448 4.04494 14.4646 3.53301 15.2111C3.02108 15.9576 2.75105 16.8044 2.75 17.6666V37.3333C2.75105 38.1955 3.02108 39.0423 3.53301 39.7887C4.04494 40.5352 4.78077 41.1551 5.66667 41.5862L26.0833 51.4195C26.9701 51.851 27.976 52.0782 29 52.0782C30.024 52.0782 31.0299 51.851 31.9167 51.4195L52.3333 41.5862C53.2192 41.1551 53.9551 40.5352 54.467 39.7887C54.9789 39.0423 55.249 38.1955 55.25 37.3333Z" stroke="#EDAE49" stroke-width="4" stroke-linecap="round" stroke-linejoin="round"/>
</svg>
